<?xml version="1.0" encoding="UTF-8" standalone="no"?>
<svg width="188px" height="42px" viewBox="0 0 188 42" version="1.1" xmlns="http://www.w3.org/2000/svg" xmlns:xlink="http://www.w3.org/1999/xlink" xmlns:sketch="http://www.bohemiancoding.com/sketch/ns">
    <!-- Generator: Sketch 3.2.2 (9983) - http://www.bohemiancoding.com/sketch -->
    <title>ReturnPath-Logo-RGB_Horizontal-Color</title>
    <desc>Created with Sketch.</desc>
    <defs>
        <path id="path-1" d="M0.01128,0.184573991 L188,0.184573991 L188,41.9886996 L0.01128,41.9886996 L0.01128,0.184573991 Z"></path>
    </defs>
    <g id="Internal-Template" stroke="none" stroke-width="1" fill="none" fill-rule="evenodd" sketch:type="MSPage">
        <g sketch:type="MSArtboardGroup" transform="translate(-250.000000, -1745.000000)" id="Dark-Footer">
            <g sketch:type="MSLayerGroup" transform="translate(0.000000, 1709.000000)">
                <g id="top-footer-2">
                    <g id="ReturnPath-Logo-RGB_Horizontal-Color" transform="translate(250.000000, 36.000000)">
                        <path d="M71.3178,20.0260897 C72.039532,19.454852 72.917116,19.1653722 73.925548,19.1653722 C74.928716,19.1653722 75.742192,19.4783946 76.341724,20.0961525 C76.923396,20.6948879 77.25202,21.503435 77.318196,22.5006996 L70.047108,22.5006996 C70.19544,21.4094529 70.6222,20.5773632 71.3178,20.0260897 L71.3178,20.0260897 Z M78.819752,26.511417 C78.605244,26.3622511 78.39976,26.3901256 78.217212,26.6180179 C77.968488,27.0348161 77.4701,27.4683767 76.735772,27.9075874 C76.005016,28.3462332 75.111264,28.5686637 74.08046,28.5686637 C73.05774,28.5686637 72.126012,28.1846368 71.31122,27.4269417 C70.516356,26.6882691 70.071736,25.6279103 69.9877,24.2735516 L79.205528,24.2735516 C79.5005,24.2735516 79.662932,24.1198655 79.662932,23.8409327 L79.662932,23.6333812 C79.662932,21.7000628 79.149692,20.1387175 78.138252,18.992852 C77.1223,17.8449148 75.70948,17.262565 73.938144,17.262565 C72.1685,17.262565 70.652844,17.8605471 69.432724,19.0399372 C68.211288,20.219704 67.592204,21.847722 67.592204,23.8797309 C67.592204,25.9115516 68.215612,27.5527534 69.444568,28.7577578 C70.674276,29.9633274 72.225088,30.5743049 74.054328,30.5743049 C74.853516,30.5743049 75.616984,30.459417 76.32236,30.2326547 C77.026984,30.0068341 77.611664,29.7230045 78.05854,29.3886996 C78.498084,29.0619283 78.845884,28.7615247 79.093856,28.4957758 C79.34258,28.2287085 79.502756,28.0373543 79.582468,27.9119193 C79.671956,27.7749955 79.715008,27.6604843 79.715008,27.5619821 C79.715008,27.4572646 79.65466,27.3459552 79.531896,27.2222152 L78.819752,26.511417 L78.819752,26.511417 Z" id="Fill-1" fill="#E3E3E3" sketch:type="MSShapeGroup"></path>
                        <path d="M103.22704,28.4648879 L101.872876,28.4648879 L101.872876,17.8513184 C101.872876,17.5927265 101.724732,17.4445022 101.466984,17.4445022 L98.257636,17.4445022 C97.999888,17.4445022 97.851556,17.5927265 97.851556,17.8513184 L97.851556,18.9661076 C97.851556,19.2246996 97.999888,19.3727354 98.257636,19.3727354 L99.560288,19.3727354 L99.560288,26.4076413 C99.560288,26.4729955 99.502196,26.6562511 99.114164,27.1534709 C98.411796,28.0578834 97.436076,28.5164933 96.212948,28.5164933 C95.313932,28.5164933 94.623596,28.2481076 94.16168,27.7190583 C93.696944,27.1869955 93.460816,26.4232735 93.460816,25.4487982 L93.460816,18.6287892 C93.460816,17.8543318 93.04308,17.4445022 92.252728,17.4445022 L84.381356,17.4445022 L84.381356,14.9211121 C84.381356,14.6252287 84.227948,14.4621256 83.950084,14.4621256 L82.500792,14.4621256 C82.205068,14.4621256 82.042636,14.6252287 82.042636,14.9211121 L82.042636,17.4445022 L80.688472,17.4445022 C80.393688,17.4445022 80.231256,17.598 80.231256,17.8767444 L80.231256,18.9399283 C80.231256,19.2190493 80.393688,19.3727354 80.688472,19.3727354 L82.042636,19.3727354 L82.042636,26.0710762 C82.042636,27.5250673 82.421832,28.6515336 83.169508,29.4180807 C83.918124,30.1851928 84.890084,30.5743049 86.059444,30.5743049 C87.225232,30.5743049 88.208284,30.2262511 88.987356,29.5352287 C89.110308,29.4122422 89.169904,29.3009327 89.169904,29.1954619 C89.169904,29.0920628 89.125912,28.9950673 89.0462,28.9167175 L88.424296,28.1111839 C88.253028,27.8981704 88.037016,27.8768879 87.817244,28.0780359 C87.508924,28.3861614 87.038924,28.5424843 86.421532,28.5424843 C85.806208,28.5424843 85.308008,28.3309776 84.940092,27.9138027 C84.569168,27.4926726 84.381356,26.8549507 84.381356,26.0189058 L84.381356,19.3727354 L91.148228,19.3727354 L91.148228,25.9686188 C91.164584,27.3527354 91.587584,28.4786368 92.404632,29.3144933 C93.22262,30.1505381 94.346484,30.5743049 95.746708,30.5743049 C97.669196,30.5743049 99.021104,29.8748072 99.767276,28.493704 L99.767276,29.2080807 C99.767276,29.9834798 100.1852,30.3931211 100.975364,30.3931211 L103.22704,30.3931211 C103.505656,30.3931211 103.659064,30.2486637 103.659064,29.9863049 L103.659064,28.8715157 C103.659064,28.6093453 103.505656,28.4648879 103.22704,28.4648879" id="Fill-2" fill="#E3E3E3" sketch:type="MSShapeGroup"></path>
                        <path d="M114.38014,17.3923318 C113.493156,17.3923318 112.684944,17.5251121 111.978064,17.7870942 C111.272688,18.0494529 110.723164,18.3474081 110.345472,18.672861 C109.969284,18.9962422 109.619228,19.4088969 109.30414,19.8995247 C109.101664,20.2163139 108.953332,20.4867713 108.858768,20.7169238 L108.858768,17.8513184 C108.858768,17.5889596 108.70536,17.4445022 108.426744,17.4445022 L105.398252,17.4445022 C105.120576,17.4445022 104.96698,17.5889596 104.96698,17.8513184 L104.96698,18.9661076 C104.96698,19.228278 105.120576,19.3727354 105.398252,19.3727354 L106.727036,19.3727354 L106.727036,28.4648879 L105.398252,28.4648879 C105.120576,28.4648879 104.96698,28.6093453 104.96698,28.8715157 L104.96698,29.9863049 C104.96698,30.2486637 105.120576,30.3931211 105.398252,30.3931211 L110.342464,30.3931211 C110.620328,30.3931211 110.773736,30.2486637 110.773736,29.9863049 L110.773736,28.8715157 C110.773736,28.6093453 110.620328,28.4648879 110.342464,28.4648879 L109.065944,28.4648879 L109.065944,24.2042422 C109.065944,23.0244753 109.50154,21.9560179 110.360324,21.0276861 C111.00648,20.3302601 111.829356,19.8921794 112.814664,19.7179641 L112.814664,20.2733812 C112.814664,20.4967534 112.99552,20.6779372 113.218488,20.6779372 L114.40834,20.6779372 C114.631308,20.6779372 114.812164,20.4967534 114.812164,20.2733812 L114.812164,17.825139 C114.812164,17.5460179 114.658756,17.3923318 114.38014,17.3923318" id="Fill-3" fill="#E3E3E3" sketch:type="MSShapeGroup"></path>
                        <path d="M129.82434,28.4648879 L128.470364,28.4648879 L128.470364,21.8690045 C128.453256,20.4677489 128.043416,19.3380807 127.2525,18.5112646 C126.461584,17.6827534 125.350128,17.262565 123.949152,17.262565 C122.112392,17.262565 120.719688,17.9799552 119.805632,19.3955247 L119.851128,17.8513184 C119.851128,17.5889596 119.69772,17.4445022 119.419104,17.4445022 L116.390612,17.4445022 C116.112936,17.4445022 115.95934,17.5889596 115.95934,17.8513184 L115.95934,18.9661076 C115.95934,19.228278 116.112936,19.3727354 116.390612,19.3727354 L117.719396,19.3727354 L117.719396,28.4648879 L116.390612,28.4648879 C116.112936,28.4648879 115.95934,28.6093453 115.95934,28.8715157 L115.95934,29.9863049 C115.95934,30.2486637 116.112936,30.3931211 116.390612,30.3931211 L121.334824,30.3931211 C121.612688,30.3931211 121.766096,30.2486637 121.766096,29.9863049 L121.766096,28.8715157 C121.766096,28.6093453 121.612688,28.4648879 121.334824,28.4648879 L120.058116,28.4648879 L120.058116,21.4520179 C120.188588,21.1926726 120.294244,21.0135605 120.378468,20.9127982 C121.097944,19.8562063 122.116152,19.320565 123.405456,19.320565 C124.304472,19.320565 124.994244,19.5887623 125.455972,20.1178117 C125.920708,20.6506278 126.156836,21.4147265 126.156836,22.3888251 L126.156836,29.2080807 C126.156836,29.9834798 126.57476,30.3931211 127.365676,30.3931211 L129.82434,30.3931211 C130.102956,30.3931211 130.256364,30.2486637 130.256364,29.9863049 L130.256364,28.8715157 C130.256364,28.6093453 130.102956,28.4648879 129.82434,28.4648879" id="Fill-4" fill="#E3E3E3" sketch:type="MSShapeGroup"></path>
                        <path d="M143.4863,21.3337399 L140.216416,21.3337399 L140.216416,13.7196861 L143.512244,13.7196861 C144.7271,13.7196861 145.747564,14.0441973 146.545248,14.6845561 C147.337668,15.3194529 147.739236,16.2973184 147.739236,17.5915964 C147.739236,20.1095247 146.347848,21.3337399 143.4863,21.3337399 L143.4863,21.3337399 Z M148.429008,13.2036323 C147.25288,12.1287713 145.719928,11.5840897 143.874332,11.5840897 L135.90238,11.5840897 C135.623952,11.5840897 135.470356,11.7285471 135.470356,11.9907175 L135.470356,13.3130583 C135.470356,13.5752287 135.623952,13.7196861 135.90238,13.7196861 L137.774108,13.7196861 L137.774108,28.2575247 L135.90238,28.2575247 C135.623952,28.2575247 135.470356,28.4017937 135.470356,28.6641525 L135.470356,29.9863049 C135.470356,30.2486637 135.623952,30.3931211 135.90238,30.3931211 L142.657972,30.3931211 C142.91572,30.3931211 143.063864,30.2448969 143.063864,29.9863049 L143.063864,28.6641525 C143.063864,28.4055605 142.91572,28.2575247 142.657972,28.2575247 L140.216416,28.2575247 L140.216416,23.3655605 L143.5897,23.3655605 C145.67462,23.3655605 147.315484,22.8559103 148.466984,21.8511121 C149.622244,20.8431121 150.207676,19.4058834 150.207676,17.5789776 C150.207676,15.7530135 149.60946,14.2807534 148.429008,13.2036323 L148.429008,13.2036323 Z" id="Fill-5" fill="#E3E3E3" sketch:type="MSShapeGroup"></path>
                        <path d="M159.907348,26.401426 C158.79608,27.8395964 157.409204,28.5686637 155.78338,28.5686637 C155.016152,28.5686637 154.38748,28.3791928 153.914472,28.005713 C153.442216,27.6326099 153.212856,27.1694798 153.212856,26.5897668 C153.212856,26.0111839 153.425108,25.5693363 153.860892,25.2391749 C154.303256,24.90487 154.850712,24.6843229 155.487656,24.5837489 C156.137008,24.4811031 156.968344,24.4289327 157.958164,24.4289327 L159.907348,24.4289327 L159.907348,26.401426 L159.907348,26.401426 Z M163.600232,28.4648879 L162.246068,28.4648879 L162.246068,22.5440179 C162.246068,19.0395605 160.38562,17.262565 156.71586,17.262565 C155.46754,17.262565 154.367364,17.4478924 153.445224,17.8140269 C152.505976,18.1867534 151.899676,18.5611749 151.604892,18.9463318 C151.411816,19.1190404 151.390196,19.319435 151.542288,19.4921435 L152.263268,20.3950493 C152.413668,20.6106996 152.667656,20.6058027 152.96338,20.3677399 C153.066216,20.2999372 153.215864,20.2046368 153.413264,20.0850404 C153.603144,19.9688341 153.934588,19.8096861 154.397068,19.6115516 C154.850712,19.4183139 155.604592,19.320565 156.637652,19.320565 C158.837816,19.320565 159.907348,20.3494709 159.907348,22.4664215 L159.907348,22.6820717 L157.828632,22.6820717 C155.666256,22.6820717 153.939852,23.0218386 152.696796,23.6919552 C151.435692,24.3720538 150.79668,25.4518117 150.79668,26.9009058 C150.79668,28.0324574 151.20934,28.9428969 152.021876,29.6066099 C152.828584,30.2661794 153.876496,30.6004843 155.136848,30.6004843 C157.197704,30.6004843 158.880304,29.7610493 160.140468,28.1045919 L160.140468,29.2080807 C160.140468,29.9834798 160.558392,30.3931211 161.348556,30.3931211 L163.600232,30.3931211 C163.85798,30.3931211 164.006124,30.2448969 164.006124,29.9863049 L164.006124,28.8715157 C164.006124,28.6129238 163.85798,28.4648879 163.600232,28.4648879 L163.600232,28.4648879 Z" id="Fill-6" fill="#E3E3E3" sketch:type="MSShapeGroup"></path>
                        <path d="M172.014548,28.1111839 C171.84328,27.8981704 171.627268,27.8768879 171.407496,28.0780359 C171.099176,28.3861614 170.629176,28.5424843 170.011596,28.5424843 C169.39646,28.5424843 168.898072,28.3309776 168.530156,27.9138027 C168.159232,27.4926726 167.971608,26.8549507 167.971608,26.0189058 L167.971608,19.3727354 L171.163848,19.3727354 C171.45882,19.3727354 171.621252,19.2190493 171.621252,18.9399283 L171.621252,17.8767444 C171.621252,17.598 171.45882,17.4445022 171.163848,17.4445022 L167.971608,17.4445022 L167.971608,14.9211121 C167.971608,14.6252287 167.8182,14.4621256 167.540336,14.4621256 L166.090856,14.4621256 C165.795132,14.4621256 165.632888,14.6252287 165.632888,14.9211121 L165.632888,17.4445022 L164.278724,17.4445022 C163.983752,17.4445022 163.82132,17.598 163.82132,17.8767444 L163.82132,18.9399283 C163.82132,19.2190493 163.983752,19.3727354 164.278724,19.3727354 L165.632888,19.3727354 L165.632888,26.0710762 C165.632888,27.5250673 166.011896,28.6515336 166.75976,29.4180807 C167.508376,30.1851928 168.480336,30.5743049 169.649696,30.5743049 C170.815296,30.5743049 171.798536,30.2262511 172.577608,29.5352287 C172.70056,29.4122422 172.760156,29.3009327 172.760156,29.1954619 C172.760156,29.0920628 172.716164,28.9950673 172.636452,28.9167175 L172.014548,28.1111839" id="Fill-7" fill="#E3E3E3" sketch:type="MSShapeGroup"></path>
                        <path d="M187.567976,28.4648879 L186.213812,28.4648879 L186.213812,21.8690045 C186.196704,20.4677489 185.787052,19.3380807 184.996136,18.5112646 C184.205032,17.6827534 183.093764,17.262565 181.692788,17.262565 C179.932732,17.262565 178.602444,17.8688341 177.735576,19.0661166 C177.77938,18.6608072 177.801752,18.227435 177.801752,17.7729686 L177.801752,11.9907175 C177.801752,11.7323139 177.653608,11.5840897 177.39586,11.5840897 L174.134248,11.5840897 C173.856384,11.5840897 173.702976,11.7285471 173.702976,11.9907175 L173.702976,13.1055067 C173.702976,13.3678655 173.856384,13.5123229 174.134248,13.5123229 L175.463032,13.5123229 L175.463032,28.4648879 L174.134248,28.4648879 C173.856384,28.4648879 173.702976,28.6093453 173.702976,28.8715157 L173.702976,29.9863049 C173.702976,30.2486637 173.856384,30.3931211 174.134248,30.3931211 L179.07846,30.3931211 C179.356324,30.3931211 179.509732,30.2486637 179.509732,29.9863049 L179.509732,28.8715157 C179.509732,28.6093453 179.356324,28.4648879 179.07846,28.4648879 L177.801752,28.4648879 L177.801752,21.4765022 C177.934292,21.1983229 178.101988,20.9222152 178.299388,20.6579731 C178.415572,20.5088072 178.568228,20.3517309 178.75228,20.1920179 C178.935392,20.0330583 179.214008,19.8447175 179.578916,19.6320807 C179.933484,19.4252825 180.461576,19.320565 181.149092,19.320565 C182.048108,19.320565 182.737692,19.5887623 183.199608,20.1178117 C183.664344,20.6506278 183.900472,21.4147265 183.900472,22.3888251 L183.900472,29.2080807 C183.900472,29.9834798 184.318396,30.3931211 185.109312,30.3931211 L187.567976,30.3931211 C187.846592,30.3931211 188,30.2486637 188,29.9863049 L188,28.8715157 C188,28.6093453 187.846592,28.4648879 187.567976,28.4648879" id="Fill-8" fill="#E3E3E3" sketch:type="MSShapeGroup"></path>
                        <g id="Group-13">
                            <mask id="mask-2" sketch:name="Clip 10" fill="white">
                                <use xlink:href="#path-1"></use>
                            </mask>
                            <g id="Clip-10"></g>
                            <path d="M58.63062,20.8674081 L55.413,20.8674081 L55.413,13.7196861 L58.63062,13.7196861 C61.526948,13.7196861 62.935632,14.9098117 62.935632,17.3580538 C62.935632,19.7192825 61.526948,20.8674081 58.63062,20.8674081 L58.63062,20.8674081 Z M66.999252,27.9478924 L66.883444,27.9478924 C65.557668,27.9478924 64.338864,27.2182601 63.710944,26.0484753 L61.747472,22.3910852 C62.537072,22.1549058 63.189996,21.8049686 63.72542,21.3591659 C64.480992,20.6304753 65.026944,19.6878296 65.268712,18.6274709 C65.285068,18.5410224 65.307064,18.4589058 65.320224,18.3698206 C65.331692,18.3061614 65.34034,18.2417489 65.349552,18.177148 C65.383392,17.8904933 65.404072,17.5934798 65.404072,17.2804574 C65.404072,15.4787892 64.808864,14.0626547 63.635744,13.0712287 C62.466384,12.0843229 60.930424,11.5840897 59.070728,11.5840897 L51.098776,11.5840897 C50.82016,11.5840897 50.66694,11.7283587 50.66694,11.9909058 L50.66694,13.3130583 C50.66694,13.5752287 50.82016,13.7196861 51.098776,13.7196861 L52.970692,13.7196861 L52.970692,28.2575247 L51.098776,28.2575247 C50.82016,28.2575247 50.66694,28.4017937 50.66694,28.6641525 L50.66694,29.9863049 C50.66694,30.2486637 50.82016,30.3931211 51.098776,30.3931211 L57.647192,30.3931211 C57.871476,30.3931211 58.053272,30.2109955 58.053272,29.9863049 L58.053272,28.6641525 C58.053272,28.4394619 57.871476,28.2575247 57.64738,28.2575247 L55.413,28.2575247 L55.413,22.8992287 L58.60148,22.8992287 C58.999664,22.8992287 59.365888,23.1184574 59.554452,23.469713 L61.560224,27.2060179 C62.613964,29.1687175 64.65884,30.3931211 66.883444,30.3931211 L66.999252,30.3931211 C67.222596,30.3931211 67.403452,30.2117489 67.403452,29.988 L67.403452,28.3528251 C67.403452,28.1290762 67.222596,27.9478924 66.999252,27.9478924 L66.999252,27.9478924 Z" id="Fill-9" fill="#E3E3E3" sketch:type="MSShapeGroup" mask="url(#mask-2)"></path>
                            <path d="M38.863172,7.45000897 L38.863172,29.9744395 L33.163952,29.9744395 C31.262144,29.9744395 29.50566,28.9404484 28.579948,27.2755157 L27.461348,25.2779731 C27.406828,25.1804126 27.292148,25.133704 27.185176,25.1655336 C26.428476,25.3898475 25.652412,25.5037937 24.878604,25.5037937 L24.543588,25.5037937 C24.438872,25.5037937 24.372696,25.6167982 24.423832,25.7083318 L26.079548,28.6714978 C27.510228,31.2438565 30.224572,32.8417399 33.163952,32.8417399 L41.172188,32.8417399 C41.477688,32.8417399 41.725472,32.5936951 41.725472,32.2874529 L41.725472,7.35244843 C41.725472,4.49268161 39.411192,2.17420628 36.5566,2.17420628 L3.655284,2.17420628 L3.655284,0.462188341 C3.655284,0.215273543 3.357304,0.0917219731 3.183028,0.266313901 L0.1081,3.3466278 C-0.036096,3.49089686 -0.036096,3.72500448 0.1081,3.86927354 L3.183028,6.94977578 C3.357304,7.12436771 3.655284,7.00081614 3.655284,6.75390135 L3.655284,5.04169507 L36.459216,5.04169507 C37.786872,5.04169507 38.863172,6.11994619 38.863172,7.45000897" id="Fill-11" fill="#E3E3E3" sketch:type="MSShapeGroup" mask="url(#mask-2)"></path>
                            <path d="M42.197728,35.2346099 C42.023452,35.0600179 41.725472,35.1835695 41.725472,35.4304843 L41.725472,37.1426906 L8.99016,37.1426906 C7.662504,37.1426906 6.586204,36.0644395 6.586204,34.7343767 L6.586204,12.2103229 L24.315356,12.2112646 C26.573236,12.2112646 28.409996,14.0515426 28.409996,16.3133274 C28.409996,18.5751121 26.573424,20.4152018 24.315732,20.4152018 L14.771912,20.4135067 C14.466224,20.4135067 14.21844,20.6615516 14.21844,20.9677937 L14.21844,32.2872646 C14.21844,32.5935067 14.466224,32.8417399 14.771912,32.8417399 L16.527268,32.8417399 C16.832768,32.8417399 17.080552,32.5935067 17.080552,32.2872646 L17.080552,23.2811839 L24.315356,23.2825022 C28.151496,23.2825022 31.272108,20.1562332 31.272108,16.3133274 C31.272108,12.4704215 28.151496,9.34396413 24.315356,9.34396413 L4.277188,9.34302242 C3.971688,9.34302242 3.723904,9.59125561 3.723904,9.89730942 L3.723904,34.8319372 C3.723904,37.691704 6.038184,40.0101794 8.892776,40.0101794 L41.725472,40.0101794 L41.725472,41.7223857 C41.725472,41.9691121 42.023452,42.092852 42.197728,41.9182601 L45.272656,38.8377578 C45.416664,38.6934888 45.416664,38.4593812 45.272656,38.3151121 L42.197728,35.2346099" id="Fill-12" fill="#E3E3E3" sketch:type="MSShapeGroup" mask="url(#mask-2)"></path>
                        </g>
                    </g>
                </g>
            </g>
        </g>
    </g>
</svg>