<?xml version="1.0" encoding="UTF-8" standalone="no"?>
<svg width="187px" height="42px" viewBox="0 0 187 42" version="1.1" xmlns="http://www.w3.org/2000/svg" xmlns:xlink="http://www.w3.org/1999/xlink" xmlns:sketch="http://www.bohemiancoding.com/sketch/ns">
    <!-- Generator: Sketch 3.2.2 (9983) - http://www.bohemiancoding.com/sketch -->
    <title>ReturnPath-Logo-RGB_Horizontal-Color</title>
    <desc>Created with Sketch.</desc>
    <defs>
        <path id="path-1" d="M0.01122,0.184573991 L187,0.184573991 L187,41.9886996 L0.01122,41.9886996 L0.01122,0.184573991 Z"></path>
    </defs>
    <g id="Home" stroke="none" stroke-width="1" fill="none" fill-rule="evenodd" sketch:type="MSPage">
        <g sketch:type="MSArtboardGroup" transform="translate(-250.000000, -39.000000)" id="Header">
            <g sketch:type="MSLayerGroup">
                <g id="Main-Bar" transform="translate(0.000000, 24.000000)">
                    <g id="ReturnPath-Logo-RGB_Horizontal-Color" transform="translate(250.000000, 15.000000)">
                        <path d="M70.93845,20.0260897 C71.656343,19.454852 72.529259,19.1653722 73.532327,19.1653722 C74.530159,19.1653722 75.339308,19.4783946 75.935651,20.0961525 C76.514229,20.6948879 76.841105,21.503435 76.906929,22.5006996 L69.674517,22.5006996 C69.82206,21.4094529 70.24655,20.5773632 70.93845,20.0260897 L70.93845,20.0260897 Z M78.400498,26.511417 C78.187131,26.3622511 77.98274,26.3901256 77.801163,26.6180179 C77.553762,27.0348161 77.058025,27.4683767 76.327603,27.9075874 C75.600734,28.3462332 74.711736,28.5686637 73.686415,28.5686637 C72.669135,28.5686637 71.742363,28.1846368 70.931905,27.4269417 C70.141269,26.6882691 69.699014,25.6279103 69.615425,24.2735516 L78.784222,24.2735516 C79.077625,24.2735516 79.239193,24.1198655 79.239193,23.8409327 L79.239193,23.6333812 C79.239193,21.7000628 78.728683,20.1387175 77.722623,18.992852 C76.712075,17.8449148 75.30677,17.262565 73.544856,17.262565 C71.784625,17.262565 70.277031,17.8605471 69.063401,19.0399372 C67.848462,20.219704 67.232671,21.847722 67.232671,23.8797309 C67.232671,25.9115516 67.852763,27.5527534 69.075182,28.7577578 C70.298349,29.9633274 71.840912,30.5743049 73.660422,30.5743049 C74.455359,30.5743049 75.214766,30.459417 75.91639,30.2326547 C76.617266,30.0068341 77.198836,29.7230045 77.643335,29.3886996 C78.080541,29.0619283 78.426491,28.7615247 78.673144,28.4957758 C78.920545,28.2287085 79.079869,28.0373543 79.159157,27.9119193 C79.248169,27.7749955 79.290992,27.6604843 79.290992,27.5619821 C79.290992,27.4572646 79.230965,27.3459552 79.108854,27.2222152 L78.400498,26.511417 L78.400498,26.511417 Z" id="Fill-1" fill="#CB333B" sketch:type="MSShapeGroup"></path>
                        <path d="M102.67796,28.4648879 L101.330999,28.4648879 L101.330999,17.8513184 C101.330999,17.5927265 101.183643,17.4445022 100.927266,17.4445022 L97.734989,17.4445022 C97.478612,17.4445022 97.331069,17.5927265 97.331069,17.8513184 L97.331069,18.9661076 C97.331069,19.2246996 97.478612,19.3727354 97.734989,19.3727354 L99.030712,19.3727354 L99.030712,26.4076413 C99.030712,26.4729955 98.972929,26.6562511 98.586961,27.1534709 C97.888329,28.0578834 96.917799,28.5164933 95.701177,28.5164933 C94.806943,28.5164933 94.120279,28.2481076 93.66082,27.7190583 C93.198556,27.1869955 92.963684,26.4232735 92.963684,25.4487982 L92.963684,18.6287892 C92.963684,17.8543318 92.54817,17.4445022 91.762022,17.4445022 L83.932519,17.4445022 L83.932519,14.9211121 C83.932519,14.6252287 83.779927,14.4621256 83.503541,14.4621256 L82.061958,14.4621256 C81.767807,14.4621256 81.606239,14.6252287 81.606239,14.9211121 L81.606239,17.4445022 L80.259278,17.4445022 C79.966062,17.4445022 79.804494,17.598 79.804494,17.8767444 L79.804494,18.9399283 C79.804494,19.2190493 79.966062,19.3727354 80.259278,19.3727354 L81.606239,19.3727354 L81.606239,26.0710762 C81.606239,27.5250673 81.983418,28.6515336 82.727117,29.4180807 C83.471751,30.1851928 84.438541,30.5743049 85.601681,30.5743049 C86.761268,30.5743049 87.739091,30.2262511 88.514019,29.5352287 C88.636317,29.4122422 88.695596,29.3009327 88.695596,29.1954619 C88.695596,29.0920628 88.651838,28.9950673 88.57255,28.9167175 L87.953954,28.1111839 C87.783597,27.8981704 87.568734,27.8768879 87.350131,28.0780359 C87.043451,28.3861614 86.575951,28.5424843 85.961843,28.5424843 C85.349792,28.5424843 84.854242,28.3309776 84.488283,27.9138027 C84.119332,27.4926726 83.932519,26.8549507 83.932519,26.0189058 L83.932519,19.3727354 L90.663397,19.3727354 L90.663397,25.9686188 C90.679666,27.3527354 91.100416,28.4786368 91.913118,29.3144933 C92.726755,30.1505381 93.844641,30.5743049 95.237417,30.5743049 C97.149679,30.5743049 98.494396,29.8748072 99.236599,28.493704 L99.236599,29.2080807 C99.236599,29.9834798 99.6523,30.3931211 100.438261,30.3931211 L102.67796,30.3931211 C102.955094,30.3931211 103.107686,30.2486637 103.107686,29.9863049 L103.107686,28.8715157 C103.107686,28.6093453 102.955094,28.4648879 102.67796,28.4648879" id="Fill-2" fill="#CB333B" sketch:type="MSShapeGroup"></path>
                        <path d="M113.771735,17.3923318 C112.889469,17.3923318 112.085556,17.5251121 111.382436,17.7870942 C110.680812,18.0494529 110.134211,18.3474081 109.758528,18.672861 C109.384341,18.9962422 109.036147,19.4088969 108.722735,19.8995247 C108.521336,20.2163139 108.373793,20.4867713 108.279732,20.7169238 L108.279732,17.8513184 C108.279732,17.5889596 108.12714,17.4445022 107.850006,17.4445022 L104.837623,17.4445022 C104.561424,17.4445022 104.408645,17.5889596 104.408645,17.8513184 L104.408645,18.9661076 C104.408645,19.228278 104.561424,19.3727354 104.837623,19.3727354 L106.159339,19.3727354 L106.159339,28.4648879 L104.837623,28.4648879 C104.561424,28.4648879 104.408645,28.6093453 104.408645,28.8715157 L104.408645,29.9863049 C104.408645,30.2486637 104.561424,30.3931211 104.837623,30.3931211 L109.755536,30.3931211 C110.031922,30.3931211 110.184514,30.2486637 110.184514,29.9863049 L110.184514,28.8715157 C110.184514,28.6093453 110.031922,28.4648879 109.755536,28.4648879 L108.485806,28.4648879 L108.485806,24.2042422 C108.485806,23.0244753 108.919085,21.9560179 109.773301,21.0276861 C110.41602,20.3302601 111.234519,19.8921794 112.214586,19.7179641 L112.214586,20.2733812 C112.214586,20.4967534 112.39448,20.6779372 112.616262,20.6779372 L113.799785,20.6779372 C114.021567,20.6779372 114.201461,20.4967534 114.201461,20.2733812 L114.201461,17.825139 C114.201461,17.5460179 114.048869,17.3923318 113.771735,17.3923318" id="Fill-3" fill="#CB333B" sketch:type="MSShapeGroup"></path>
                        <path d="M129.133785,28.4648879 L127.787011,28.4648879 L127.787011,21.8690045 C127.769994,20.4677489 127.362334,19.3380807 126.575625,18.5112646 C125.788916,17.6827534 124.683372,17.262565 123.289848,17.262565 C121.462858,17.262565 120.077562,17.9799552 119.168368,19.3955247 L119.213622,17.8513184 C119.213622,17.5889596 119.06103,17.4445022 118.783896,17.4445022 L115.771513,17.4445022 C115.495314,17.4445022 115.342535,17.5889596 115.342535,17.8513184 L115.342535,18.9661076 C115.342535,19.228278 115.495314,19.3727354 115.771513,19.3727354 L117.093229,19.3727354 L117.093229,28.4648879 L115.771513,28.4648879 C115.495314,28.4648879 115.342535,28.6093453 115.342535,28.8715157 L115.342535,29.9863049 C115.342535,30.2486637 115.495314,30.3931211 115.771513,30.3931211 L120.689426,30.3931211 C120.965812,30.3931211 121.118404,30.2486637 121.118404,29.9863049 L121.118404,28.8715157 C121.118404,28.6093453 120.965812,28.4648879 120.689426,28.4648879 L119.419509,28.4648879 L119.419509,21.4520179 C119.549287,21.1926726 119.654381,21.0135605 119.738157,20.9127982 C120.453806,19.8562063 121.466598,19.320565 122.749044,19.320565 C123.643278,19.320565 124.329381,19.5887623 124.788653,20.1178117 C125.250917,20.6506278 125.485789,21.4147265 125.485789,22.3888251 L125.485789,29.2080807 C125.485789,29.9834798 125.90149,30.3931211 126.688199,30.3931211 L129.133785,30.3931211 C129.410919,30.3931211 129.563511,30.2486637 129.563511,29.9863049 L129.563511,28.8715157 C129.563511,28.6093453 129.410919,28.4648879 129.133785,28.4648879" id="Fill-4" fill="#CB333B" sketch:type="MSShapeGroup"></path>
                        <path d="M142.723075,21.3337399 L139.470584,21.3337399 L139.470584,13.7196861 L142.748881,13.7196861 C143.957275,13.7196861 144.972311,14.0441973 145.765752,14.6845561 C146.553957,15.3194529 146.953389,16.2973184 146.953389,17.5915964 C146.953389,20.1095247 145.569402,21.3337399 142.723075,21.3337399 L142.723075,21.3337399 Z M147.639492,13.2036323 C146.46962,12.1287713 144.944822,11.5840897 143.109043,11.5840897 L135.179495,11.5840897 C134.902548,11.5840897 134.749769,11.7285471 134.749769,11.9907175 L134.749769,13.3130583 C134.749769,13.5752287 134.902548,13.7196861 135.179495,13.7196861 L137.041267,13.7196861 L137.041267,28.2575247 L135.179495,28.2575247 C134.902548,28.2575247 134.749769,28.4017937 134.749769,28.6641525 L134.749769,29.9863049 C134.749769,30.2486637 134.902548,30.3931211 135.179495,30.3931211 L141.899153,30.3931211 C142.15553,30.3931211 142.302886,30.2448969 142.302886,29.9863049 L142.302886,28.6641525 C142.302886,28.4055605 142.15553,28.2575247 141.899153,28.2575247 L139.470584,28.2575247 L139.470584,23.3655605 L142.825925,23.3655605 C144.899755,23.3655605 146.531891,22.8559103 147.677266,21.8511121 C148.826381,20.8431121 149.408699,19.4058834 149.408699,17.5789776 C149.408699,15.7530135 148.813665,14.2807534 147.639492,13.2036323 L147.639492,13.2036323 Z" id="Fill-5" fill="#CB333B" sketch:type="MSShapeGroup"></path>
                        <path d="M159.056777,26.401426 C157.95142,27.8395964 156.571921,28.5686637 154.954745,28.5686637 C154.191598,28.5686637 153.56627,28.3791928 153.095778,28.005713 C152.626034,27.6326099 152.397894,27.1694798 152.397894,26.5897668 C152.397894,26.0111839 152.609017,25.5693363 153.042483,25.2391749 C153.482494,24.90487 154.027038,24.6843229 154.660594,24.5837489 C155.306492,24.4811031 156.133406,24.4289327 157.117961,24.4289327 L159.056777,24.4289327 L159.056777,26.401426 L159.056777,26.401426 Z M162.730018,28.4648879 L161.383057,28.4648879 L161.383057,22.5440179 C161.383057,19.0395605 159.532505,17.262565 155.882265,17.262565 C154.640585,17.262565 153.546261,17.4478924 152.629026,17.8140269 C151.694774,18.1867534 151.091699,18.5611749 150.798483,18.9463318 C150.606434,19.1190404 150.584929,19.319435 150.736212,19.4921435 L151.453357,20.3950493 C151.602957,20.6106996 151.855594,20.6058027 152.149745,20.3677399 C152.252034,20.2999372 152.400886,20.2046368 152.597236,20.0850404 C152.786106,19.9688341 153.115787,19.8096861 153.575807,19.6115516 C154.027038,19.4183139 154.776908,19.320565 155.804473,19.320565 C157.992934,19.320565 159.056777,20.3494709 159.056777,22.4664215 L159.056777,22.6820717 L156.989118,22.6820717 C154.838244,22.6820717 153.121023,23.0218386 151.884579,23.6919552 C150.630183,24.3720538 149.99457,25.4518117 149.99457,26.9009058 C149.99457,28.0324574 150.405035,28.9428969 151.213249,29.6066099 C152.015666,30.2661794 153.058004,30.6004843 154.311652,30.6004843 C156.361546,30.6004843 158.035196,29.7610493 159.288657,28.1045919 L159.288657,29.2080807 C159.288657,29.9834798 159.704358,30.3931211 160.490319,30.3931211 L162.730018,30.3931211 C162.986395,30.3931211 163.133751,30.2448969 163.133751,29.9863049 L163.133751,28.8715157 C163.133751,28.6129238 162.986395,28.4648879 162.730018,28.4648879 L162.730018,28.4648879 Z" id="Fill-6" fill="#CB333B" sketch:type="MSShapeGroup"></path>
                        <path d="M171.099577,28.1111839 C170.92922,27.8981704 170.714357,27.8768879 170.495754,28.0780359 C170.189074,28.3861614 169.721574,28.5424843 169.107279,28.5424843 C168.495415,28.5424843 167.999678,28.3309776 167.633719,27.9138027 C167.264768,27.4926726 167.078142,26.8549507 167.078142,26.0189058 L167.078142,19.3727354 L170.253402,19.3727354 C170.546805,19.3727354 170.708373,19.2190493 170.708373,18.9399283 L170.708373,17.8767444 C170.708373,17.598 170.546805,17.4445022 170.253402,17.4445022 L167.078142,17.4445022 L167.078142,14.9211121 C167.078142,14.6252287 166.92555,14.4621256 166.649164,14.4621256 L165.207394,14.4621256 C164.913243,14.4621256 164.751862,14.6252287 164.751862,14.9211121 L164.751862,17.4445022 L163.404901,17.4445022 C163.111498,17.4445022 162.94993,17.598 162.94993,17.8767444 L162.94993,18.9399283 C162.94993,19.2190493 163.111498,19.3727354 163.404901,19.3727354 L164.751862,19.3727354 L164.751862,26.0710762 C164.751862,27.5250673 165.128854,28.6515336 165.87274,29.4180807 C166.617374,30.1851928 167.584164,30.5743049 168.747304,30.5743049 C169.906704,30.5743049 170.884714,30.2262511 171.659642,29.5352287 C171.78194,29.4122422 171.841219,29.3009327 171.841219,29.1954619 C171.841219,29.0920628 171.797461,28.9950673 171.718173,28.9167175 L171.099577,28.1111839" id="Fill-7" fill="#CB333B" sketch:type="MSShapeGroup"></path>
                        <path d="M186.570274,28.4648879 L185.223313,28.4648879 L185.223313,21.8690045 C185.206296,20.4677489 184.798823,19.3380807 184.012114,18.5112646 C183.225218,17.6827534 182.119861,17.262565 180.726337,17.262565 C178.975643,17.262565 177.652431,17.8688341 176.790174,19.0661166 C176.833745,18.6608072 176.855998,18.227435 176.855998,17.7729686 L176.855998,11.9907175 C176.855998,11.7323139 176.708642,11.5840897 176.452265,11.5840897 L173.208002,11.5840897 C172.931616,11.5840897 172.779024,11.7285471 172.779024,11.9907175 L172.779024,13.1055067 C172.779024,13.3678655 172.931616,13.5123229 173.208002,13.5123229 L174.529718,13.5123229 L174.529718,28.4648879 L173.208002,28.4648879 C172.931616,28.4648879 172.779024,28.6093453 172.779024,28.8715157 L172.779024,29.9863049 C172.779024,30.2486637 172.931616,30.3931211 173.208002,30.3931211 L178.125915,30.3931211 C178.402301,30.3931211 178.554893,30.2486637 178.554893,29.9863049 L178.554893,28.8715157 C178.554893,28.6093453 178.402301,28.4648879 178.125915,28.4648879 L176.855998,28.4648879 L176.855998,21.4765022 C176.987833,21.1983229 177.154637,20.9222152 177.350987,20.6579731 C177.466553,20.5088072 177.618397,20.3517309 177.80147,20.1920179 C177.983608,20.0330583 178.260742,19.8447175 178.623709,19.6320807 C178.976391,19.4252825 179.501674,19.320565 180.185533,19.320565 C181.079767,19.320565 181.765683,19.5887623 182.225142,20.1178117 C182.687406,20.6506278 182.922278,21.4147265 182.922278,22.3888251 L182.922278,29.2080807 C182.922278,29.9834798 183.337979,30.3931211 184.124688,30.3931211 L186.570274,30.3931211 C186.847408,30.3931211 187,30.2486637 187,29.9863049 L187,28.8715157 C187,28.6093453 186.847408,28.4648879 186.570274,28.4648879" id="Fill-8" fill="#CB333B" sketch:type="MSShapeGroup"></path>
                        <g id="Group-13">
                            <mask id="mask-2" sketch:name="Clip 10" fill="white">
                                <use xlink:href="#path-1"></use>
                            </mask>
                            <g id="Clip-10"></g>
                            <path d="M58.318755,20.8674081 L55.11825,20.8674081 L55.11825,13.7196861 L58.318755,13.7196861 C61.199677,13.7196861 62.600868,14.9098117 62.600868,17.3580538 C62.600868,19.7192825 61.199677,20.8674081 58.318755,20.8674081 L58.318755,20.8674081 Z M66.642873,27.9478924 L66.527681,27.9478924 C65.208957,27.9478924 63.996636,27.2182601 63.372056,26.0484753 L61.419028,22.3910852 C62.204428,22.1549058 62.853879,21.8049686 63.386455,21.3591659 C64.138008,20.6304753 64.681056,19.6878296 64.921538,18.6274709 C64.937807,18.5410224 64.959686,18.4589058 64.972776,18.3698206 C64.984183,18.3061614 64.992785,18.2417489 65.001948,18.177148 C65.035608,17.8904933 65.056178,17.5934798 65.056178,17.2804574 C65.056178,15.4787892 64.464136,14.0626547 63.297256,13.0712287 C62.134116,12.0843229 60.606326,11.5840897 58.756522,11.5840897 L50.826974,11.5840897 C50.54984,11.5840897 50.397435,11.7283587 50.397435,11.9909058 L50.397435,13.3130583 C50.397435,13.5752287 50.54984,13.7196861 50.826974,13.7196861 L52.688933,13.7196861 L52.688933,28.2575247 L50.826974,28.2575247 C50.54984,28.2575247 50.397435,28.4017937 50.397435,28.6641525 L50.397435,29.9863049 C50.397435,30.2486637 50.54984,30.3931211 50.826974,30.3931211 L57.340558,30.3931211 C57.563649,30.3931211 57.744478,30.2109955 57.744478,29.9863049 L57.744478,28.6641525 C57.744478,28.4394619 57.563649,28.2575247 57.340745,28.2575247 L55.11825,28.2575247 L55.11825,22.8992287 L58.28977,22.8992287 C58.685836,22.8992287 59.050112,23.1184574 59.237673,23.469713 L61.232776,27.2060179 C62.280911,29.1687175 64.31491,30.3931211 66.527681,30.3931211 L66.642873,30.3931211 C66.865029,30.3931211 67.044923,30.2117489 67.044923,29.988 L67.044923,28.3528251 C67.044923,28.1290762 66.865029,27.9478924 66.642873,27.9478924 L66.642873,27.9478924 Z" id="Fill-9" fill="#CB333B" sketch:type="MSShapeGroup" mask="url(#mask-2)"></path>
                            <path d="M38.656453,7.45000897 L38.656453,29.9744395 L32.987548,29.9744395 C31.095856,29.9744395 29.348715,28.9404484 28.427927,27.2755157 L27.315277,25.2779731 C27.261047,25.1804126 27.146977,25.133704 27.040574,25.1655336 C26.287899,25.3898475 25.515963,25.5037937 24.746271,25.5037937 L24.413037,25.5037937 C24.308878,25.5037937 24.243054,25.6167982 24.293918,25.7083318 L25.940827,28.6714978 C27.363897,31.2438565 30.063803,32.8417399 32.987548,32.8417399 L40.953187,32.8417399 C41.257062,32.8417399 41.503528,32.5936951 41.503528,32.2874529 L41.503528,7.35244843 C41.503528,4.49268161 39.201558,2.17420628 36.36215,2.17420628 L3.635841,2.17420628 L3.635841,0.462188341 C3.635841,0.215273543 3.339446,0.0917219731 3.166097,0.266313901 L0.107525,3.3466278 C-0.035904,3.49089686 -0.035904,3.72500448 0.107525,3.86927354 L3.166097,6.94977578 C3.339446,7.12436771 3.635841,7.00081614 3.635841,6.75390135 L3.635841,5.04169507 L36.265284,5.04169507 C37.585878,5.04169507 38.656453,6.11994619 38.656453,7.45000897" id="Fill-11" fill="#CB333B" sketch:type="MSShapeGroup" mask="url(#mask-2)"></path>
                            <path d="M41.973272,35.2346099 C41.799923,35.0600179 41.503528,35.1835695 41.503528,35.4304843 L41.503528,37.1426906 L8.94234,37.1426906 C7.621746,37.1426906 6.551171,36.0644395 6.551171,34.7343767 L6.551171,12.2103229 L24.186019,12.2112646 C26.431889,12.2112646 28.258879,14.0515426 28.258879,16.3133274 C28.258879,18.5751121 26.432076,20.4152018 24.186393,20.4152018 L14.693338,20.4135067 C14.389276,20.4135067 14.14281,20.6615516 14.14281,20.9677937 L14.14281,32.2872646 C14.14281,32.5935067 14.389276,32.8417399 14.693338,32.8417399 L16.439357,32.8417399 C16.743232,32.8417399 16.989698,32.5935067 16.989698,32.2872646 L16.989698,23.2811839 L24.186019,23.2825022 C28.001754,23.2825022 31.105767,20.1562332 31.105767,16.3133274 C31.105767,12.4704215 28.001754,9.34396413 24.186019,9.34396413 L4.254437,9.34302242 C3.950562,9.34302242 3.704096,9.59125561 3.704096,9.89730942 L3.704096,34.8319372 C3.704096,37.691704 6.006066,40.0101794 8.845474,40.0101794 L41.503528,40.0101794 L41.503528,41.7223857 C41.503528,41.9691121 41.799923,42.092852 41.973272,41.9182601 L45.031844,38.8377578 C45.175086,38.6934888 45.175086,38.4593812 45.031844,38.3151121 L41.973272,35.2346099" id="Fill-12" fill="#CB333B" sketch:type="MSShapeGroup" mask="url(#mask-2)"></path>
                        </g>
                    </g>
                </g>
            </g>
        </g>
    </g>
</svg>